<svg width="200" height="220" viewBox="0 0 200 220" fill="none" xmlns="http://www.w3.org/2000/svg">
<path fill-rule="evenodd" clip-rule="evenodd" d="M33.9451 8.23295C54.4006 1.27042 77.0188 11.1336 84.464 30.263L99.8299 69.7435L115.196 30.2631C122.641 11.1337 145.259 1.27055 165.715 8.23308C186.17 15.1956 196.717 36.3474 189.272 55.4768L137.796 187.737C131.858 202.993 116.27 212.356 99.8248 211.99C83.3833 212.351 67.8002 202.99 61.8638 187.737L10.3877 55.4766C2.94254 36.3472 13.4895 15.1955 33.9451 8.23295Z" fill="white"/>
<path fill-rule="evenodd" clip-rule="evenodd" d="M77.1373 34.0754C71.1727 18.8447 53.0522 10.9916 36.6642 16.5352C20.2763 22.0787 11.8267 38.9196 17.7914 54.1504L57.9497 156.694L91.5536 70.887L77.1373 34.0754ZM100 49.3191L92.0541 29.0295C83.0909 6.14203 55.8611 -5.6587 31.235 2.67162C6.60875 11.002 -6.08863 36.3089 2.87458 59.1963L54.4802 190.97C61.6048 209.163 80.2708 220.351 99.9965 219.991C119.725 220.354 138.394 209.165 145.52 190.97L197.125 59.1964C206.089 36.309 193.391 11.002 168.765 2.67165C144.139 -5.65869 116.909 6.14215 107.946 29.0295L100 49.3191ZM100 92.4548L71.257 165.85C65.2924 181.08 73.7421 197.921 90.1301 203.465C93.3872 204.567 96.7129 205.139 99.9979 205.23C103.284 205.14 106.611 204.567 109.87 203.465C126.258 197.921 134.708 181.08 128.743 165.849L100 92.4548ZM142.05 156.694L108.446 70.887L122.863 34.0755C128.827 18.8447 146.948 10.9917 163.336 16.5352C179.724 22.0788 188.173 38.9198 182.209 54.1505L142.05 156.694Z" fill="black"/>
</svg>
